<?xml version="1.0" encoding="UTF-8" standalone="no"?>
<svg
   xmlns:dc="http://purl.org/dc/elements/1.1/"
   xmlns:cc="http://creativecommons.org/ns#"
   xmlns:rdf="http://www.w3.org/1999/02/22-rdf-syntax-ns#"
   xmlns:svg="http://www.w3.org/2000/svg"
   xmlns="http://www.w3.org/2000/svg"
   xmlns:sodipodi="http://sodipodi.sourceforge.net/DTD/sodipodi-0.dtd"
   xmlns:inkscape="http://www.inkscape.org/namespaces/inkscape"
   version="1.1"
   id="图层_1"
   x="0px"
   y="0px"
   viewBox="0 0 150 150"
   xml:space="preserve"
   sodipodi:docname="groupLogo_150.svg"
   inkscape:version="1.0.1 (c497b03c, 2020-09-10)"
   width="150"
   height="150"><metadata
   id="metadata849"><rdf:RDF><cc:Work
       rdf:about=""><dc:format>image/svg+xml</dc:format><dc:type
         rdf:resource="http://purl.org/dc/dcmitype/StillImage" /><dc:title></dc:title></cc:Work></rdf:RDF></metadata><defs
   id="defs847" /><sodipodi:namedview
   pagecolor="#ffffff"
   bordercolor="#666666"
   borderopacity="1"
   objecttolerance="10"
   gridtolerance="10"
   guidetolerance="10"
   inkscape:pageopacity="0"
   inkscape:pageshadow="2"
   inkscape:window-width="1879"
   inkscape:window-height="1147"
   id="namedview845"
   showgrid="false"
   inkscape:zoom="6.26"
   inkscape:cx="75"
   inkscape:cy="75"
   inkscape:window-x="41"
   inkscape:window-y="25"
   inkscape:window-maximized="1"
   inkscape:current-layer="图层_1"
   inkscape:document-rotation="0" />
<style
   type="text/css"
   id="style833">
	.st0{fill:none;stroke:#000000;stroke-miterlimit:10;}
</style>
<path
   id="_x31_"
   class="st0"
   d="M 66.873226,51.683873 H 37.225387 c 0,0 -9.118247,-27.264459 0,-36.400758 9.118244,-9.136302 29.629783,0 29.629783,0 z"
   style="stroke-width:0.18056" />
<path
   id="_x32_"
   class="st0"
   d="m 119.01876,130.55218 c -8.28768,7.09598 -19.19346,0 -19.19346,0 V 90.449957 h 19.19346 c 0,0 8.28767,33.006243 0,40.102223 z"
   style="stroke-width:0.18056" />
<path
   id="_x33_"
   class="st0"
   d="M 136.29828,62.047977 H 110.69497 V 37.708581 c 0,0 22.15463,-4.297311 25.58526,0 3.43062,4.279258 0.0181,24.339396 0.0181,24.339396 z"
   style="stroke-width:0.18056" />
<path
   id="_x34_"
   style="fill:none;stroke:#000000;stroke-width:0.18056;stroke-miterlimit:10"
   d="M 69.166329,37.708583 H 108.43798 V 62.04798 H 69.166329 Z"
   class="st0" />
<path
   id="_x35_"
   class="st0"
   d="m 66.873226,113.0921 c 0,0 -37.610506,9.11824 -50.303827,0 -12.6752624,-9.11825 0,-33.457645 0,-33.457645 h 50.303827 z"
   style="stroke-width:0.18056" />
<path
   id="_x36_"
   class="st0"
   d="M 119.32571,35.686317 H 69.021881 V 7.952406 c 0,0 40.661959,-10.4724403 50.303829,0 9.64186,10.490496 0,27.733911 0,27.733911 z"
   style="stroke-width:0.18056" />
<path
   id="_x37_"
   class="st0"
   d="M 66.873226,77.810806 H 7.5956027 c 0,0 -10.9057827,-14.318354 0,-24.339396 10.9057833,-10.021041 59.2956783,0 59.2956783,0 v 24.339396 z"
   style="stroke-width:0.18056" />
<path
   id="_x38_"
   class="st0"
   d="m 142.23869,88.427694 c -11.14052,9.966873 -42.431445,0 -42.431445,0 V 64.070243 h 42.431445 c 0,0 11.15856,14.37252 0,24.357451 z"
   style="stroke-width:0.18056" />
<path
   id="_x39_"
   class="st0"
   d="m 69.166331,141.71075 c -17.098969,-13.95724 0,-77.640507 0,-77.640507 h 27.354735 v 77.640507 c 0,0 -10.25577,13.97529 -27.354735,0 z"
   style="stroke-width:0.18056" />
</svg>
