<?xml version="1.0" encoding="UTF-8" standalone="no"?>
<svg
   xmlns:dc="http://purl.org/dc/elements/1.1/"
   xmlns:cc="http://creativecommons.org/ns#"
   xmlns:rdf="http://www.w3.org/1999/02/22-rdf-syntax-ns#"
   xmlns:svg="http://www.w3.org/2000/svg"
   xmlns="http://www.w3.org/2000/svg"
   xmlns:sodipodi="http://sodipodi.sourceforge.net/DTD/sodipodi-0.dtd"
   xmlns:inkscape="http://www.inkscape.org/namespaces/inkscape"
   version="1.1"
   id="图层_1"
   x="0px"
   y="0px"
   viewBox="0 0 200 200"
   xml:space="preserve"
   sodipodi:docname="groupLogo_200.svg"
   inkscape:version="1.0.1 (c497b03c, 2020-09-10)"
   width="200"
   height="200"><metadata
   id="metadata849"><rdf:RDF><cc:Work
       rdf:about=""><dc:format>image/svg+xml</dc:format><dc:type
         rdf:resource="http://purl.org/dc/dcmitype/StillImage" /><dc:title></dc:title></cc:Work></rdf:RDF></metadata><defs
   id="defs847" /><sodipodi:namedview
   pagecolor="#ffffff"
   bordercolor="#666666"
   borderopacity="1"
   objecttolerance="10"
   gridtolerance="10"
   guidetolerance="10"
   inkscape:pageopacity="0"
   inkscape:pageshadow="2"
   inkscape:window-width="1879"
   inkscape:window-height="1147"
   id="namedview845"
   showgrid="false"
   inkscape:zoom="4.695"
   inkscape:cx="100"
   inkscape:cy="100"
   inkscape:window-x="41"
   inkscape:window-y="25"
   inkscape:window-maximized="1"
   inkscape:current-layer="图层_1"
   inkscape:document-rotation="0" />
<style
   type="text/css"
   id="style833">
	.st0{fill:none;stroke:#000000;stroke-miterlimit:10;}
</style>
<path
   id="_x31_"
   class="st0"
   d="M 88.786099,68.226484 H 49.020878 c 0,0 -12.229867,-36.568508 0,-48.822587 12.229862,-12.2540825 39.741003,0 39.741003,0 z"
   style="stroke-width:0.242176" />
<path
   id="_x32_"
   class="st0"
   d="m 158.7264,174.00875 c -11.11587,9.5175 -25.74327,0 -25.74327,0 v -53.78718 h 25.74327 c 0,0 11.11585,44.26968 0,53.78718 z"
   style="stroke-width:0.242176" />
<path
   id="_x33_"
   class="st0"
   d="M 181.90259,82.127358 H 147.5621 V 49.482096 c 0,0 29.71494,-5.763776 34.31628,0 4.60132,5.739563 0.0243,32.645262 0.0243,32.645262 z"
   style="stroke-width:0.242176" />
<path
   id="_x34_"
   style="fill:none;stroke:#000000;stroke-width:0.242176;stroke-miterlimit:10"
   d="M 91.861727,49.482099 H 144.5349 V 82.127362 H 91.861727 Z"
   class="st0" />
<path
   id="_x35_"
   class="st0"
   d="m 88.786099,150.59039 c 0,0 -50.445164,12.22985 -67.470105,0 -17.0007199,-12.22987 0,-44.87513 0,-44.87513 h 67.470105 z"
   style="stroke-width:0.242176" />
<path
   id="_x36_"
   class="st0"
   d="M 159.13809,46.769731 H 91.667986 V 9.5715696 c 0,0 54.537934,-14.0461807 67.470104,0 12.93217,14.0703974 0,37.1981614 0,37.1981614 z"
   style="stroke-width:0.242176" />
<path
   id="_x37_"
   class="st0"
   d="M 88.786099,103.26928 H 9.2798726 c 0,0 -14.627402,-19.204517 0,-32.645259 14.6274024,-13.44074 79.5304424,0 79.5304424,0 v 32.645259 z"
   style="stroke-width:0.242176" />
<path
   id="_x38_"
   class="st0"
   d="m 189.87017,117.5092 c -14.94224,13.36809 -56.91126,0 -56.91126,0 V 84.839726 h 56.91126 c 0,0 14.96644,19.277174 0,32.669474 z"
   style="stroke-width:0.242176" />
<path
   id="_x39_"
   class="st0"
   d="m 91.86173,188.97521 c -22.934025,-18.72018 0,-104.135484 0,-104.135484 h 36.68959 V 188.97521 c 0,0 -13.75557,18.74438 -36.68959,0 z"
   style="stroke-width:0.242176" />
</svg>
