<?xml version="1.0" encoding="utf-8"?>
<!-- Generator: Adobe Illustrator 24.0.0, SVG Export Plug-In . SVG Version: 6.00 Build 0)  -->
<svg version="1.1" id="图层_1" xmlns="http://www.w3.org/2000/svg" xmlns:xlink="http://www.w3.org/1999/xlink" x="0px" y="0px"
	 viewBox="0 0 841.9 595.3" style="enable-background:new 0 0 841.9 595.3;" xml:space="preserve">
<g>
	<path d="M197.6,269.8c1.3,0.7,1.3,1.3,0,2l-4,7l-10,78.1c-2.7,13.4,3,20,17,20c17.3,0,32.7-1,46.1-3c9.3-0.7,16.3-9,21-25
		c0.7-1.3,1.7-2,3-2c0.7,0,1,0.7,1,2c-1.3,14-0.3,21.7,3,23c10,8,8.7,15.3-4,22c-20,7.3-43.7,9.3-71.1,6
		c-25.4-2.7-36.4-18.4-33-47.1l4-76.1l1-16l-35,1l10,4c2,0.7,2.3,1.7,1,3l-2,7c2,64.7-34,110.8-108.1,138.2c-1.3,0.7-2.3,0.3-3-1
		c-0.7-1.3-0.3-2.3,1-3c36.7-17.4,60.7-35.7,72.1-55.1c12-18.7,17.7-49.7,17-93.1l-36,1c-11.4,0.7-20,1.7-26,3l-9-8l181.2-4l15-15
		l19,17c1.3,0.7,1,1.7-1,3l-89.1,2L197.6,269.8z M119.6,191.7c-13.4,1.3-22.4,2.3-27,3l-8-8l112.1-3l14-14l19,16c0.7,1.3,0,2.3-2,3
		L119.6,191.7z"/>
	<path d="M432.9,259.8c1.3,0,1.7,1,1,3l-3,7v36l63.1-2l16-17l22,19c0.7,0.7,0.3,1.7-1,3l-100.1,3v3l1,45.1c0,20-12.4,36-37,48.1
		c-1.3,0.7-2.3,0.7-3,0c-0.7-0.7-0.7-1.3,0-2c0.7-13.4-3.3-21.7-12-25c-1.3-0.7-1-1,1-1c19.4,0.7,28-2,26-8l-1-60.1l-67.1,2
		c-12,0.7-21,2-27,4l-7-9l101.1-2v-7c0-20-0.3-35-1-45.1h-27c-9.4,0.7-18.4,1.7-27,3l-7-7l112.1-3l15-16l18,17c1.3,1.3,1,2-1,2
		l-75.1,3L432.9,259.8z M497,205.8l12-9l25,26c1.3,1.3,1.7,2.7,1,4c-0.7,0.7-2,1-4,1c-10.7,0.7-24,5-40,13c-1.3,0.7-2,0-2-2l9-28
		l-150.2,4c-6,21.4-16.7,36.4-32,45.1c-2.7,1.3-4.7,1-6-1c-2-8-1.7-14,1-18c12.7-11.3,19.7-24,21-38c0-1.3,0.3-2,1-2
		c1.3-0.7,2.7-0.3,4,1c2.7,0.7,6,3.3,10,8l57.1-2l-1-38l30,9c2,0.7,2.3,2,1,4l-3,5l-1,20L497,205.8z"/>
	<path d="M746.3,205.8l12-9l26,26c2,4,0,6.4-6,7c-11.4-1.3-23,1.7-35,9c-1.3,0.7-2.3,0-3-2l7-25l-144.2,6
		c-5.3,20.7-15.7,35.7-31,45.1c-1.3,1.3-2.7,1.7-4,1c-0.7,0-1-0.7-1-2c-2.7-8.7-2.7-14.3,0-17c12.7-12,19.7-25,21-39
		c-0.7-1.3-0.3-2.3,1-3c0.7,0,1.7,0.3,3,1c1.3,0.7,4,2.3,8,5c1.3,1.3,2.3,2.3,3,3l57.1-2l-2-42c0-2,0.7-2.7,2-2l28,8
		c0.7,0,1.3,0.3,2,1l-1,2c-2,2-3.3,5.7-4,11v21L746.3,205.8z M750.3,280.9v39l1,39c0,17.4-6.4,31.7-19,43c-2.7,2.7-5,2-7-2
		c-0.7-1.3-2-3.3-4-6l-7-13l-94.1,3v1c-1.3,6-6,12-14,18c-2.7,2.7-4.7,2-6-2l-1-116.1l-1-27l22,13l41-2l-1-47.1l28,9
		c1.3,0.7,1.3,1.7,0,3c-2,2-3.7,5.4-5,10v24l39-1l11-13l23,15c0.7,0.7,1,1.7,1,3L750.3,280.9z M620.1,275.8v45.1l42-1l-1-45.1
		L620.1,275.8z M620.1,326.9V381l42-2v-54.1L620.1,326.9z M724.2,272.8l-41,1v45.1l31-2c2,0,3,0.7,3,2c0,2-1,3-3,3l-31,2l-1,55.1
		l42-2V272.8z"/>
</g>
</svg>
